<?xml version="1.0" encoding="utf-8"?>
<!-- Generator: Adobe Illustrator 27.7.0, SVG Export Plug-In . SVG Version: 6.00 Build 0)  -->
<svg version="1.1" id="layer" xmlns="http://www.w3.org/2000/svg" xmlns:xlink="http://www.w3.org/1999/xlink" x="0px" y="0px"
	 viewBox="0 0 620 620" style="enable-background:new 0 0 620 620;" xml:space="preserve">
<style type="text/css">
	.st0{fill:#888888;}
	.st1{fill-rule:evenodd;clip-rule:evenodd;fill:#C80F28;}
</style>
<polygon class="st1" points="186.2,388.3 382,388.3 382,513 441.9,513 441.9,337.1 253.7,337.1 413.3,111.7 338.8,111.7 
	172.5,348.1 "/>
<path class="st1" d="M393.9,593c-24.3,4.4-39.7,5.3-60.9,5.3c-151.2,0-273.8-125.5-273.8-279.8S181.8,38.7,333,38.7
	c124.3,0,229.7,84.9,262.8,201.1c-17.2-78.2-65.3-149.4-138-193.1C318-36.8,137.7,11.3,55.7,154.1c-82,142.8-34.4,327.1,104.9,410.6
	C233.8,608.5,318.5,616,393.9,593"/>
</svg>
